<svg xmlns="http://www.w3.org/2000/svg" xmlns:xlink="http://www.w3.org/1999/xlink" width="24" height="24" viewBox="0 0 24 24">
  <defs>
    <clipPath id="clip-path">
      <rect id="Rectangle_21828" data-name="Rectangle 21828" width="24" height="24" fill="#06283d"/>
    </clipPath>
  </defs>
  <g id="bell-notification" clip-path="url(#clip-path)">
    <path id="Path_59523" data-name="Path 59523" d="M146.919,9.129a6.8,6.8,0,0,1,5.062,6.553v4.165l2,4.9a.529.529,0,0,1-.291.689.515.515,0,0,1-.2.039v0h-4.98a3.35,3.35,0,0,1-6.614,0h-4.98a.531.531,0,0,1-.469-.779l1.983-4.851V15.683A6.8,6.8,0,0,1,143.5,9.13a2.162,2.162,0,1,1,3.422,0Zm-1.712-.221a1.1,1.1,0,1,0-.778-.322A1.1,1.1,0,0,0,145.207,8.909Zm2.226,16.568h-4.452a2.288,2.288,0,0,0,4.452,0Zm1.808-13.829a5.712,5.712,0,0,0-9.745,4.034v4.263h0a.527.527,0,0,1-.039.2l-1.747,4.272h15l-1.727-4.222a.527.527,0,0,1-.062-.248V15.682a5.694,5.694,0,0,0-1.678-4.034Z" transform="translate(-133.39 -4.648)" fill="#06283d"/>
  </g>
</svg>
