<svg xmlns="http://www.w3.org/2000/svg" xmlns:xlink="http://www.w3.org/1999/xlink" width="24" height="24" viewBox="0 0 24 24">
  <defs>
    <clipPath id="clip-path">
      <rect id="Rectangle_21912" data-name="Rectangle 21912" width="24" height="24" transform="translate(1070 25)" fill="#06283d"/>
    </clipPath>
  </defs>
  <g id="cart" transform="translate(-1070 -25)" clip-path="url(#clip-path)">
    <path id="Path_59530" data-name="Path 59530" d="M92.972,13.308l1.34-5a.417.417,0,0,1,.806.216l-1.34,5a.418.418,0,0,1-.4.31.407.407,0,0,1-.108-.014.418.418,0,0,1-.3-.511Zm-2.016.071.447-5a.417.417,0,1,1,.831.074l-.446,5a.418.418,0,0,1-.415.381l-.038,0a.418.418,0,0,1-.379-.453Zm-2.45-4.925a.417.417,0,0,1,.832-.074l.446,5a.418.418,0,0,1-.379.453l-.037,0a.418.418,0,0,1-.415-.381Zm-2.884.071a.417.417,0,0,1,.806-.216l1.34,5a.418.418,0,0,1-.3.511.409.409,0,0,1-.109.014.419.419,0,0,1-.4-.31Zm7.918,13a1.189,1.189,0,1,1,1.189-1.189A1.191,1.191,0,0,1,93.54,21.526Zm0-3.214a2.024,2.024,0,1,0,2.024,2.024A2.026,2.026,0,0,0,93.54,18.312Zm-6.167,3.214a1.189,1.189,0,1,1,1.19-1.189A1.191,1.191,0,0,1,87.373,21.526Zm0-3.214A2.024,2.024,0,1,0,89.4,20.336,2.026,2.026,0,0,0,87.373,18.312ZM83.235,6.864c.124.574,1.283,5.947,1.764,8.1h8.174c1.592,0,1.8,0,2.252-1.158l2.724-6.946H83.235Zm3.377-3.58L91.367,6.03H85.027Zm4.223-1.2L89.5,3.989,93.037,6.03h2.88ZM93.4,15.8c1.466,0,2.169-.076,2.8-1.689L99.15,6.6a.417.417,0,0,0-.388-.57H97.278L91,1.16a.417.417,0,0,0-.6.09L88.776,3.569,86.668,2.353a.417.417,0,0,0-.57.153L84.063,6.029H83.054c-.3-1.38-.605-2.778-.918-4.176a.417.417,0,0,0-.408-.326H78.87a.417.417,0,1,0,0,.835h2.524c.48,2.154,2.349,10.816,2.852,13.07v1.115a1.543,1.543,0,0,0,1.542,1.542H96.131a.417.417,0,1,0,0-.835H85.788a.708.708,0,0,1-.707-.707V15.8H93.4Z" transform="translate(992.822 25.062)" fill="#06283d" fill-rule="evenodd"/>
  </g>
</svg>
