<svg xmlns="http://www.w3.org/2000/svg" xmlns:xlink="http://www.w3.org/1999/xlink" width="28" height="28" viewBox="0 0 28 28">
  <defs>
    <clipPath id="clip-path">
      <rect id="Rectangle_21944" data-name="Rectangle 21944" width="28" height="28" transform="translate(20 99)" fill="#858585"/>
    </clipPath>
  </defs>
  <g id="employee-default" transform="translate(-20 -99)" clip-path="url(#clip-path)">
    <g id="Group_44135" data-name="Group 44135" transform="translate(-267 -117.024)">
      <path id="Path_59667" data-name="Path 59667" d="M137.077,204.846a3.426,3.426,0,1,0-3.427-3.427A3.43,3.43,0,0,0,137.077,204.846Zm0-5.411a1.985,1.985,0,1,1-1.985,1.985A1.987,1.987,0,0,1,137.077,199.435Z" transform="translate(155.767 24.239)" fill="#858585"/>
      <path id="Path_59668" data-name="Path 59668" d="M99.443,344.605a2.673,2.673,0,0,1,2.67-2.67h2.524c.076,0,.15,0,.224.009a.746.746,0,0,0,.568-.191.705.705,0,0,0,.229-.524.722.722,0,0,0-.641-.718c-.125-.012-.252-.018-.381-.018h-2.524A4.116,4.116,0,0,0,98,344.605v7.3h1.442Z" transform="translate(189.469 -110.478)" fill="#858585"/>
      <path id="Path_59669" data-name="Path 59669" d="M242.87,320.271h1.442V311.5a3.021,3.021,0,0,1,3.018-3.018h2.783a3.022,3.022,0,0,1,3.018,3.018v8.775h1.442V311.5a4.47,4.47,0,0,0-4.46-4.46H247.33a4.474,4.474,0,0,0-4.46,4.46v8.775Z" transform="translate(52.513 -78.847)" fill="#858585"/>
      <path id="Path_59670" data-name="Path 59670" d="M467.4,340.48H464.88c-.071,0-.141,0-.21.006a.723.723,0,0,0-.467,1.247.71.71,0,0,0,.531.193c.049,0,.1,0,.147,0H467.4a2.673,2.673,0,0,1,2.67,2.67v7.3h1.442v-7.3A4.117,4.117,0,0,0,467.4,340.48Z" transform="translate(-156.516 -110.465)" fill="#858585"/>
      <path id="Path_59671" data-name="Path 59671" d="M444.313,204.846a3.426,3.426,0,1,0-3.427-3.427A3.43,3.43,0,0,0,444.313,204.846Zm0-5.411a1.985,1.985,0,1,1-1.985,1.985A1.987,1.987,0,0,1,444.313,199.435Z" transform="translate(-134.687 24.239)" fill="#858585"/>
      <path id="Path_59672" data-name="Path 59672" d="M275.4,147.441a4.31,4.31,0,1,0-4.31-4.31A4.315,4.315,0,0,0,275.4,147.441Zm0-7.179a2.869,2.869,0,1,1-2.869,2.869A2.872,2.872,0,0,1,275.4,140.262Z" transform="translate(25.834 80.18)" fill="#858585"/>
    </g>
  </g>
</svg>
