<svg xmlns="http://www.w3.org/2000/svg" xmlns:xlink="http://www.w3.org/1999/xlink" width="24" height="24" viewBox="0 0 24 24">
  <defs>
    <clipPath id="clip-path">
      <rect id="Rectangle_21934" data-name="Rectangle 21934" width="24" height="24" transform="translate(16 26)" fill="#fff" stroke="#707070" stroke-width="1"/>
    </clipPath>
  </defs>
  <g id="hamburger" transform="translate(-16 -26)" clip-path="url(#clip-path)">
    <g id="Group_43881" data-name="Group 43881" transform="translate(-7752 -187)">
      <path id="Path_59520" data-name="Path 59520" d="M103.073,78.4H82.656a1.458,1.458,0,1,0,0,2.917h20.417a1.458,1.458,0,1,0,0-2.917Z" transform="translate(7687.469 137.602)"/>
      <path id="Path_59521" data-name="Path 59521" d="M103.073,246.4H82.656a1.458,1.458,0,1,0,0,2.917h20.417a1.458,1.458,0,1,0,0-2.917Z" transform="translate(7687.469 -23.108)"/>
      <path id="Path_59522" data-name="Path 59522" d="M82.656,414.4h20.417a1.458,1.458,0,1,1,0,2.917H82.656a1.458,1.458,0,1,1,0-2.917Z" transform="translate(7687.469 -183.817)"/>
    </g>
  </g>
</svg>
