<svg xmlns="http://www.w3.org/2000/svg" xmlns:xlink="http://www.w3.org/1999/xlink" width="28" height="28" viewBox="0 0 28 28">
  <defs>
    <clipPath id="clip-path">
      <rect id="Rectangle_21641" data-name="Rectangle 21641" width="28" height="28" transform="translate(20 99)" fill="#858585"/>
    </clipPath>
  </defs>
  <g id="line-default" transform="translate(-20 -99)" clip-path="url(#clip-path)">
    <g id="Group_43853" data-name="Group 43853" transform="translate(-446.95 -297.95)">
      <path id="Path_59584" data-name="Path 59584" d="M127.591,56.755H106.673V35.837a.837.837,0,1,0-1.673,0V57.591a.837.837,0,0,0,.837.837h21.754a.837.837,0,1,0,0-1.673Z" transform="translate(364 364)" fill="#858585"/>
      <path id="Path_59585" data-name="Path 59585" d="M195,88.019a.837.837,0,0,0-.77-.519h-3.347a.837.837,0,0,0-.594,1.431l1.088,1.079-5.02,5.02h-7.187a.837.837,0,0,0-.778.527l-3.347,8.367a.837.837,0,1,0,1.556.619l3.138-7.84H186.7a.837.837,0,0,0,.594-.243l5.263-5.271,1.079,1.079a.837.837,0,0,0,1.431-.586V88.337a.838.838,0,0,0-.067-.318Z" transform="translate(297.36 314.01)" fill="#858585"/>
    </g>
  </g>
</svg>
